<svg width="195" height="72" viewBox="0 0 195 72" fill="none" xmlns="http://www.w3.org/2000/svg">
<path d="M10.0564 13.0481H0V0H10.0564V13.0481ZM10.0564 71.4282H0V16.8208H10.0564V71.4282Z" fill="#36485B"/>
<path d="M41.3308 71.4282H31.2383V29.3762C31.2383 27.4058 30.5054 26.4206 29.0276 26.4206H24.9065C24.4139 26.4206 24.1736 26.7329 24.1736 27.3457V71.4282H14.1172V20.8216C14.1172 18.1704 15.4388 16.8447 18.0821 16.8447H32.8483C38.5033 16.8447 41.3308 20.5453 41.3308 27.9464V71.4282Z" fill="#36485B"/>
<path d="M72.6057 60.3264C72.6057 67.7276 69.7782 71.4282 64.1232 71.4282H53.8746C48.2196 71.4282 45.3921 67.7276 45.3921 60.3264V27.9464C45.3921 20.5453 48.2196 16.8447 53.8746 16.8447H64.1232C69.7862 16.8447 72.6137 20.5453 72.6057 27.9464V60.3264ZM60.3386 61.9004C61.8164 61.9004 62.5493 60.9152 62.5493 58.9447V29.3281C62.5493 27.3577 61.8164 26.3725 60.3386 26.3725H57.5751C56.1574 26.3725 55.4485 27.3577 55.4485 29.3281V58.9447C55.4485 60.9152 56.1574 61.9004 57.5751 61.9004H60.3386Z" fill="#36485B"/>
<path d="M103.244 71.4283H93.1875L89.3067 53.406C89.295 53.3326 89.269 53.2622 89.23 53.1988C89.191 53.1355 89.1399 53.0805 89.0797 53.0369C89.0194 52.9934 88.9511 52.9622 88.8787 52.9451C88.8063 52.928 88.7313 52.9254 88.6579 52.9374H88.2975C88.0492 52.9374 87.893 53.0936 87.8289 53.406L83.9601 71.4283H73.9878L80.9083 41.8237L74.3603 16.8208H84.1043L87.9851 33.7497C87.9851 34.1222 88.2014 34.3024 88.4417 34.3024H88.9102C89.0304 34.3024 89.1625 34.1222 89.2827 33.7497L93.2716 16.8208H102.883L96.2273 41.8237L103.244 71.4283Z" fill="#36485B"/>
<path d="M121.074 56.1812C121.074 59.9538 119.572 61.8402 116.568 61.8402H108.134V56.7699H114.309C115.199 56.7699 115.631 56.2653 115.631 55.244V53.1895C115.665 52.2633 115.333 51.361 114.706 50.6784L109.552 45.1275C109.123 44.6747 108.777 44.1501 108.53 43.5776C108.285 42.9586 108.167 42.2968 108.182 41.6312V38.4473C108.182 34.6826 109.688 32.8003 112.699 32.8003H120.293V37.8585H114.85C113.937 37.8585 113.48 38.3632 113.48 39.3844V40.658C113.458 41.1381 113.538 41.6175 113.714 42.0647C113.89 42.5119 114.158 42.917 114.502 43.2532L119.704 48.8041C120.594 49.7303 121.085 50.9681 121.074 52.2523V56.1812Z" fill="#DE0A40"/>
<path d="M137.642 59.7256C137.681 60.0168 137.652 60.3131 137.556 60.5908C137.461 60.8686 137.301 61.1202 137.091 61.3256C136.881 61.531 136.626 61.6844 136.346 61.7738C136.067 61.8632 135.77 61.8859 135.48 61.8403H127.694C124.674 61.8403 123.168 59.8738 123.176 55.941V32.8364H128.559V55.1961C128.559 56.2534 128.931 56.77 129.688 56.77H131.947C132.199 56.77 132.332 56.6138 132.332 56.2774V32.8364H137.678L137.642 59.7256Z" fill="#DE0A40"/>
<path d="M145.14 69.9983H139.793V34.951C139.75 34.6635 139.776 34.37 139.867 34.0941C139.958 33.8181 140.113 33.5674 140.318 33.3619C140.524 33.1563 140.775 33.0018 141.051 32.9105C141.327 32.8193 141.62 32.7939 141.908 32.8364H149.753C152.757 32.8364 154.259 34.7948 154.259 38.7357V55.7367C154.259 59.6455 152.757 61.596 149.753 61.5879H145.14V69.9983ZM147.783 56.5297C148.576 56.5297 148.984 56.001 148.984 54.9558V39.4686C148.984 38.4233 148.6 37.8947 147.783 37.8947H145.584C145.32 37.8947 145.188 38.0629 145.188 38.3873V56.5297H147.783Z" fill="#DE0A40"/>
<path d="M161.756 69.9983H156.409V34.951C156.367 34.6635 156.392 34.37 156.483 34.0941C156.575 33.8181 156.729 33.5674 156.935 33.3619C157.14 33.1563 157.391 33.0018 157.667 32.9105C157.943 32.8193 158.236 32.7939 158.524 32.8364H166.357C169.373 32.8364 170.875 34.7948 170.875 38.7357V55.7367C170.875 59.6455 169.369 61.596 166.357 61.5879H161.756V69.9983ZM164.351 56.5297C165.132 56.5297 165.552 56.001 165.552 54.9558V39.4686C165.552 38.4233 165.156 37.8947 164.351 37.8947H162.2C161.936 37.8947 161.804 38.0629 161.804 38.3873V56.5297H164.351Z" fill="#DE0A40"/>
<path d="M178.372 61.8404H173.014V23.0444H178.36L178.372 61.8404Z" fill="#DE0A40"/>
<path d="M194.989 64.099C194.989 68.0239 193.487 69.9903 190.484 69.9983H181.857V64.88H188.465C189.258 64.88 189.667 64.3634 189.667 63.3061V60.855H185.029C182.017 60.855 180.511 58.9046 180.511 55.0038V32.8364H185.858V54.5593C185.858 55.6046 186.23 56.1332 186.987 56.1332H189.63V32.8364H194.977L194.989 64.099Z" fill="#DE0A40"/>
</svg>
