<svg width="423" height="423" viewBox="0 0 423 423" fill="none" xmlns="http://www.w3.org/2000/svg">
<path d="M211.25 422.72C327.92 422.72 422.5 328.14 422.5 211.47C422.5 94.7998 327.92 0.219971 211.25 0.219971C94.5798 0.219971 0 94.7998 0 211.47C0 328.14 94.5798 422.72 211.25 422.72Z" fill="#DE0A40"/>
<path d="M315.5 206.11C315.5 202.95 315.34 199.83 315.06 196.75L335.91 191.29L326.56 155.61L305.32 161.16C300.865 151.879 295.054 143.312 288.08 135.74L301.72 118.07L272.51 95.53L258.71 113.42C249.643 108.793 239.941 105.531 229.92 103.74V81H193.02V103.74C183.494 105.44 174.253 108.469 165.57 112.74L152.02 94.65L122.49 116.77L135.89 134.66C130.776 140.056 126.254 145.983 122.4 152.34L101.68 144.71L88.93 179.33L109.22 186.85C108.005 193.208 107.392 199.667 107.39 206.14C107.39 208.41 107.5 210.68 107.64 212.93L87 218.32L96.35 254.02L116.52 248.74C120.873 258.411 126.676 267.36 133.73 275.28L121.22 291.51L150.43 314.06L162.79 298.06C172.266 303.076 182.465 306.588 193.02 308.47V328.59H229.92V308.47C239.968 306.676 249.694 303.401 258.78 298.75L270.91 314.94L300.45 292.85L288.15 276.43C293.376 270.721 297.95 264.45 301.79 257.73L321.27 264.85L334.01 230.22L314.13 222.91C315.036 217.356 315.494 211.738 315.5 206.11V206.11ZM211.5 275.63C197.489 275.63 183.793 271.475 172.143 263.691C160.494 255.907 151.414 244.844 146.052 231.899C140.691 218.955 139.288 204.711 142.021 190.97C144.755 177.228 151.501 164.606 161.409 154.699C171.316 144.791 183.938 138.045 197.68 135.311C211.421 132.578 225.665 133.981 238.609 139.342C251.554 144.704 262.617 153.784 270.401 165.433C278.185 177.083 282.34 190.779 282.34 204.79C282.34 214.095 280.507 223.31 276.945 231.906C273.383 240.503 268.162 248.314 261.581 254.892C255 261.471 247.187 266.688 238.589 270.246C229.99 273.805 220.775 275.634 211.47 275.63H211.5Z" stroke="white" stroke-width="4" stroke-miterlimit="10"/>
<path d="M126.96 204.85C126.96 182.437 135.864 160.941 151.712 145.092C167.561 129.244 189.057 120.34 211.47 120.34" stroke="white" stroke-width="4" stroke-miterlimit="10"/>
</svg>
