<svg width="423" height="423" viewBox="0 0 423 423" fill="none" xmlns="http://www.w3.org/2000/svg">
<path d="M211.67 422.72C328.34 422.72 422.92 328.14 422.92 211.47C422.92 94.7998 328.34 0.219971 211.67 0.219971C94.9998 0.219971 0.419983 94.7998 0.419983 211.47C0.419983 328.14 94.9998 422.72 211.67 422.72Z" fill="#DE0A40"/>
<path d="M71.81 313.7H276.26V109.24L71.81 313.7ZM238 275.7H162L238 199.7V275.7Z" stroke="white" stroke-width="4" stroke-miterlimit="10"/>
<path d="M96.86 303.08V313.7" stroke="white" stroke-width="4" stroke-miterlimit="10"/>
<path d="M109.73 303.08V313.7" stroke="white" stroke-width="4" stroke-miterlimit="10"/>
<path d="M122.62 303.08V313.7" stroke="white" stroke-width="4" stroke-miterlimit="10"/>
<path d="M135.5 303.08V313.7" stroke="white" stroke-width="4" stroke-miterlimit="10"/>
<path d="M148.38 303.08V313.7" stroke="white" stroke-width="4" stroke-miterlimit="10"/>
<path d="M161.25 303.08V313.7" stroke="white" stroke-width="4" stroke-miterlimit="10"/>
<path d="M174.13 303.08V313.7" stroke="white" stroke-width="4" stroke-miterlimit="10"/>
<path d="M187.02 303.08V313.7" stroke="white" stroke-width="4" stroke-miterlimit="10"/>
<path d="M199.89 303.08V313.7" stroke="white" stroke-width="4" stroke-miterlimit="10"/>
<path d="M212.77 303.08V313.7" stroke="white" stroke-width="4" stroke-miterlimit="10"/>
<path d="M225.65 303.08V313.7" stroke="white" stroke-width="4" stroke-miterlimit="10"/>
<path d="M238.54 303.08V313.7" stroke="white" stroke-width="4" stroke-miterlimit="10"/>
<path d="M251.41 303.08V313.7" stroke="white" stroke-width="4" stroke-miterlimit="10"/>
<path d="M264.3 303.08V313.7" stroke="white" stroke-width="4" stroke-miterlimit="10"/>
<path d="M267 144.06H348.7C349.63 144.06 350.55 144.243 351.409 144.599C352.268 144.955 353.049 145.476 353.706 146.134C354.364 146.791 354.885 147.572 355.241 148.431C355.597 149.29 355.78 150.21 355.78 151.14V273.22C355.78 275.098 355.034 276.899 353.706 278.226C352.379 279.554 350.578 280.3 348.7 280.3H267C265.125 280.3 263.327 279.555 262.001 278.229C260.675 276.903 259.93 275.105 259.93 273.23V151.14C259.93 149.265 260.675 147.467 262.001 146.141C263.327 144.815 265.125 144.07 267 144.07V144.06Z" fill="#DE0A40" stroke="white" stroke-width="4" stroke-miterlimit="10"/>
<path d="M344.9 160.46H270.75V176.93H344.9V160.46Z" stroke="white" stroke-width="4" stroke-miterlimit="10"/>
<path d="M291.62 191.15H277.58V205.18H291.62V191.15Z" stroke="white" stroke-width="4" stroke-miterlimit="10"/>
<path d="M314.84 191.15H300.81V205.18H314.84V191.15Z" stroke="white" stroke-width="4" stroke-miterlimit="10"/>
<path d="M338.07 191.15H324.04V205.18H338.07V191.15Z" stroke="white" stroke-width="4" stroke-miterlimit="10"/>
<path d="M291.62 214.73H277.58V228.76H291.62V214.73Z" stroke="white" stroke-width="4" stroke-miterlimit="10"/>
<path d="M314.84 214.73H300.81V228.76H314.84V214.73Z" stroke="white" stroke-width="4" stroke-miterlimit="10"/>
<path d="M338.07 214.73H324.04V228.76H338.07V214.73Z" stroke="white" stroke-width="4" stroke-miterlimit="10"/>
<path d="M291.62 238.32H277.58V252.35H291.62V238.32Z" stroke="white" stroke-width="4" stroke-miterlimit="10"/>
<path d="M314.84 238.32H300.81V252.35H314.84V238.32Z" stroke="white" stroke-width="4" stroke-miterlimit="10"/>
<path d="M338.07 238.32H324.04V252.35H338.07V238.32Z" stroke="white" stroke-width="4" stroke-miterlimit="10"/>
<path d="M346.79 249.75V264.75C346.79 266.628 346.044 268.429 344.716 269.756C343.389 271.084 341.588 271.83 339.71 271.83H316.3" stroke="white" stroke-width="4" stroke-miterlimit="10"/>
<path d="M96.28 256.32L83.13 243.18L182.45 143.86L195.59 157.01L96.28 256.32Z" stroke="white" stroke-width="4" stroke-miterlimit="10"/>
<path d="M195.59 157.01L182.45 143.86L189.41 136.88L202.57 150.03L195.59 157.01Z" stroke="white" stroke-width="4" stroke-miterlimit="10"/>
<path d="M202.57 150L206.35 146.21C207.261 145.358 207.991 144.331 208.497 143.191C209.002 142.051 209.273 140.82 209.293 139.573C209.313 138.326 209.082 137.088 208.613 135.932C208.144 134.776 207.447 133.727 206.563 132.846C205.68 131.965 204.628 131.272 203.471 130.806C202.314 130.341 201.075 130.113 199.828 130.137C198.581 130.16 197.351 130.435 196.212 130.944C195.074 131.453 194.049 132.186 193.2 133.1L189.41 136.89L202.57 150Z" stroke="white" stroke-width="4" stroke-miterlimit="10"/>
<path d="M83.13 243.18L96.28 256.32L73.97 265.49L83.13 243.18Z" stroke="white" stroke-width="4" stroke-miterlimit="10"/>
<path d="M78.49 254.48L73.97 265.49L84.98 260.97L78.49 254.48Z" stroke="white" stroke-width="4" stroke-miterlimit="10"/>
<path d="M189.02 150.44L89.71 249.75" stroke="white" stroke-width="4" stroke-miterlimit="10"/>
</svg>
