<svg width="423" height="423" viewBox="0 0 423 423" fill="none" xmlns="http://www.w3.org/2000/svg">
<path d="M211.36 422.5C328.03 422.5 422.61 327.92 422.61 211.25C422.61 94.5798 328.03 0 211.36 0C94.6898 0 0.109985 94.5798 0.109985 211.25C0.109985 327.92 94.6898 422.5 211.36 422.5Z" fill="#DE0A40"/>
<path d="M303.92 285.71C303.92 291.775 301.511 297.592 297.222 301.881C292.933 306.17 287.116 308.58 281.05 308.58H141.66C138.657 308.58 135.684 307.988 132.91 306.839C130.135 305.689 127.615 304.005 125.492 301.881C123.369 299.757 121.685 297.236 120.537 294.461C119.389 291.686 118.799 288.713 118.8 285.71V155.26C118.799 152.257 119.389 149.283 120.537 146.509C121.685 143.734 123.369 141.213 125.492 139.089C127.615 136.965 130.135 135.28 132.91 134.131C135.684 132.982 138.657 132.39 141.66 132.39H281.05C287.116 132.39 292.933 134.799 297.222 139.088C301.511 143.377 303.92 149.194 303.92 155.26V285.71Z" stroke="white" stroke-width="4" stroke-miterlimit="10"/>
<path d="M268 260.4C268 264.113 266.525 267.674 263.9 270.3C261.274 272.925 257.713 274.4 254 274.4H168.7C164.987 274.4 161.426 272.925 158.801 270.3C156.175 267.674 154.7 264.113 154.7 260.4V180.57C154.7 176.857 156.175 173.296 158.801 170.671C161.426 168.045 164.987 166.57 168.7 166.57H254C257.713 166.57 261.274 168.045 263.9 170.671C266.525 173.296 268 176.857 268 180.57V260.4Z" stroke="white" stroke-width="4" stroke-miterlimit="10"/>
<path d="M243.78 220.89C243.78 219.89 243.78 218.94 243.64 217.98L250.13 216.28L247.22 205.15L240.6 206.89C239.214 203.997 237.408 201.325 235.24 198.96L239.48 193.46L230.38 186.46L226.07 192.03C223.235 190.59 220.202 189.579 217.07 189.03V181.95H205.57V189C202.599 189.531 199.718 190.477 197.01 191.81L192.79 186.17L183.58 193.06L187.76 198.64C186.166 200.32 184.758 202.168 183.56 204.15L177.09 201.77L173.09 212.57L179.42 214.9C179.054 216.879 178.87 218.887 178.87 220.9C178.87 221.61 178.87 222.32 178.94 223.02L172.51 224.7L175.41 235.83L181.71 234.18C183.06 237.196 184.868 239.986 187.07 242.45L183.15 247.53L192.26 254.53L196.11 249.53C199.066 251.098 202.247 252.198 205.54 252.79V259.06H217.04V252.79C220.171 252.236 223.203 251.225 226.04 249.79L229.82 254.79L239.02 247.89L235.19 242.77C236.821 240.996 238.247 239.044 239.44 236.95L245.51 239.18L249.51 228.4L243.31 226.12C243.607 224.392 243.764 222.643 243.78 220.89V220.89ZM211.35 242.57C206.983 242.57 202.714 241.275 199.083 238.849C195.452 236.423 192.622 232.974 190.951 228.94C189.28 224.905 188.842 220.465 189.694 216.182C190.546 211.899 192.649 207.965 195.737 204.877C198.825 201.789 202.759 199.686 207.042 198.834C211.325 197.982 215.765 198.42 219.8 200.091C223.834 201.762 227.283 204.592 229.709 208.223C232.135 211.854 233.43 216.123 233.43 220.49C233.431 223.39 232.861 226.262 231.752 228.941C230.643 231.621 229.016 234.055 226.966 236.106C224.915 238.156 222.481 239.783 219.801 240.892C217.122 242.001 214.25 242.571 211.35 242.57V242.57Z" stroke="white" stroke-width="4" stroke-miterlimit="10"/>
<path d="M146.23 102.49V132.39" stroke="white" stroke-width="4" stroke-miterlimit="10"/>
<path d="M167.94 102.49V132.39" stroke="white" stroke-width="4" stroke-miterlimit="10"/>
<path d="M189.65 102.49V132.39" stroke="white" stroke-width="4" stroke-miterlimit="10"/>
<path d="M211.35 102.49V132.39" stroke="white" stroke-width="4" stroke-miterlimit="10"/>
<path d="M233.06 102.49V132.39" stroke="white" stroke-width="4" stroke-miterlimit="10"/>
<path d="M254.77 102.49V132.39" stroke="white" stroke-width="4" stroke-miterlimit="10"/>
<path d="M276.47 102.49V132.39" stroke="white" stroke-width="4" stroke-miterlimit="10"/>
<path d="M333.83 155.37H303.92" stroke="white" stroke-width="4" stroke-miterlimit="10"/>
<path d="M333.83 177.07H303.92" stroke="white" stroke-width="4" stroke-miterlimit="10"/>
<path d="M333.83 198.79H303.92" stroke="white" stroke-width="4" stroke-miterlimit="10"/>
<path d="M333.83 220.49H303.92" stroke="white" stroke-width="4" stroke-miterlimit="10"/>
<path d="M333.83 242.19H303.92" stroke="white" stroke-width="4" stroke-miterlimit="10"/>
<path d="M333.83 263.9H303.92" stroke="white" stroke-width="4" stroke-miterlimit="10"/>
<path d="M333.83 285.6H303.92" stroke="white" stroke-width="4" stroke-miterlimit="10"/>
<path d="M276.47 338.49V308.58" stroke="white" stroke-width="4" stroke-miterlimit="10"/>
<path d="M254.77 338.49V308.58" stroke="white" stroke-width="4" stroke-miterlimit="10"/>
<path d="M233.06 338.49V308.58" stroke="white" stroke-width="4" stroke-miterlimit="10"/>
<path d="M211.35 338.49V308.58" stroke="white" stroke-width="4" stroke-miterlimit="10"/>
<path d="M189.65 338.49V308.58" stroke="white" stroke-width="4" stroke-miterlimit="10"/>
<path d="M167.94 338.49V308.58" stroke="white" stroke-width="4" stroke-miterlimit="10"/>
<path d="M146.23 338.49V308.58" stroke="white" stroke-width="4" stroke-miterlimit="10"/>
<path d="M88.88 285.6H118.8" stroke="white" stroke-width="4" stroke-miterlimit="10"/>
<path d="M88.88 263.9H118.8" stroke="white" stroke-width="4" stroke-miterlimit="10"/>
<path d="M88.88 242.19H118.8" stroke="white" stroke-width="4" stroke-miterlimit="10"/>
<path d="M88.88 220.49H118.8" stroke="white" stroke-width="4" stroke-miterlimit="10"/>
<path d="M88.88 198.79H118.8" stroke="white" stroke-width="4" stroke-miterlimit="10"/>
<path d="M88.88 177.07H118.8" stroke="white" stroke-width="4" stroke-miterlimit="10"/>
<path d="M88.88 155.37H118.8" stroke="white" stroke-width="4" stroke-miterlimit="10"/>
<path d="M148.49 157.59C148.49 158.929 148.093 160.237 147.35 161.35C146.606 162.463 145.55 163.331 144.313 163.844C143.077 164.356 141.716 164.491 140.403 164.231C139.09 163.97 137.884 163.326 136.936 162.381C135.989 161.435 135.344 160.23 135.081 158.917C134.819 157.604 134.952 156.243 135.462 155.006C135.973 153.769 136.839 152.711 137.951 151.966C139.063 151.221 140.371 150.822 141.71 150.82C143.506 150.82 145.229 151.533 146.501 152.802C147.772 154.072 148.487 155.794 148.49 157.59V157.59Z" stroke="white" stroke-width="4" stroke-miterlimit="10"/>
<path d="M148.49 283.4C148.488 284.738 148.089 286.046 147.345 287.158C146.6 288.269 145.543 289.136 144.306 289.647C143.069 290.158 141.709 290.291 140.397 290.03C139.085 289.768 137.879 289.123 136.933 288.177C135.987 287.231 135.342 286.026 135.081 284.713C134.819 283.401 134.952 282.041 135.463 280.804C135.975 279.567 136.841 278.51 137.952 277.765C139.064 277.021 140.372 276.622 141.71 276.62C143.508 276.62 145.233 277.334 146.504 278.606C147.776 279.877 148.49 281.602 148.49 283.4V283.4Z" stroke="white" stroke-width="4" stroke-miterlimit="10"/>
<path d="M290 157.59C290.002 158.931 289.606 160.243 288.862 161.36C288.118 162.476 287.06 163.346 285.822 163.861C284.583 164.376 283.219 164.511 281.903 164.251C280.588 163.991 279.379 163.346 278.429 162.398C277.48 161.45 276.833 160.242 276.571 158.926C276.309 157.611 276.442 156.247 276.955 155.008C277.468 153.768 278.337 152.709 279.452 151.963C280.567 151.218 281.879 150.82 283.22 150.82C285.016 150.82 286.739 151.533 288.011 152.802C289.282 154.072 289.997 155.794 290 157.59Z" stroke="white" stroke-width="4" stroke-miterlimit="10"/>
<path d="M290 283.4C290 284.741 289.602 286.052 288.857 287.167C288.112 288.282 287.054 289.151 285.815 289.664C284.576 290.177 283.213 290.311 281.897 290.05C280.582 289.788 279.374 289.143 278.426 288.194C277.478 287.246 276.832 286.038 276.57 284.723C276.309 283.408 276.443 282.044 276.956 280.806C277.469 279.567 278.338 278.508 279.453 277.763C280.568 277.018 281.879 276.62 283.22 276.62C285.018 276.62 286.743 277.334 288.014 278.606C289.286 279.877 290 281.602 290 283.4V283.4Z" stroke="white" stroke-width="4" stroke-miterlimit="10"/>
</svg>
