<svg width="500" height="500" viewBox="0 0 500 500" fill="none" xmlns="http://www.w3.org/2000/svg">
<path d="M187.5 312.5C131.875 312.5 20.8333 340.417 20.8333 395.833V437.5H354.167V395.833C354.167 340.417 243.125 312.5 187.5 312.5ZM460.417 142.5C460.625 140.208 460.833 137.917 460.833 135.417C460.833 132.917 460.625 130.625 460.208 128.333L475.625 116.25C477.083 115.208 477.292 113.125 476.458 111.667L461.875 86.4584C461.042 84.7917 458.958 84.375 457.5 84.7917L439.583 92.0834C435.833 89.1667 431.667 86.875 427.292 85L424.583 65.625C424.426 64.746 423.964 63.9505 423.278 63.3788C422.592 62.8071 421.726 62.4959 420.833 62.5H391.667C389.792 62.5 388.333 63.75 388.125 65.625L385.417 85C381.042 86.875 376.875 89.375 373.125 92.0834L355 84.7917C353.333 84.1667 351.458 84.7917 350.625 86.4584L336.042 111.667C335.208 113.333 335.417 115.208 336.875 116.25L352.292 128.333C351.463 133.019 351.463 137.814 352.292 142.5L336.875 154.583C335.417 155.625 335.208 157.708 336.042 159.167L350.625 184.375C351.458 186.042 353.542 186.458 355 186.042L373.125 178.75C376.875 181.667 381.042 183.958 385.417 185.833L388.125 205.208C388.333 207.083 389.792 208.333 391.667 208.333H420.833C422.708 208.333 424.167 207.083 424.375 205.208L427.083 185.833C431.458 183.958 435.625 181.458 439.375 178.75L457.5 186.042C459.167 186.667 461.042 186.042 461.875 184.375L476.458 159.167C477.292 157.5 477.083 155.625 475.625 154.583L460.417 142.5ZM406.25 161.458C399.343 161.458 392.719 158.715 387.836 153.831C382.952 148.947 380.208 142.323 380.208 135.417C380.208 128.51 382.952 121.886 387.836 117.002C392.719 112.119 399.343 109.375 406.25 109.375C413.157 109.375 419.78 112.119 424.664 117.002C429.548 121.886 432.292 128.51 432.292 135.417C432.292 142.323 429.548 148.947 424.664 153.831C419.78 158.715 413.157 161.458 406.25 161.458ZM415 243.333L404.583 225.208C403.958 223.958 402.5 223.542 401.458 223.958L388.542 229.167C385.833 227.083 382.917 225.417 379.792 224.167L377.917 210.417C377.703 209.812 377.308 209.288 376.787 208.915C376.265 208.543 375.641 208.339 375 208.333H354.167C352.917 208.333 351.875 209.167 351.667 210.625L349.792 224.375C346.667 225.625 343.75 227.5 341.042 229.375L328.125 224.167C326.875 223.75 325.625 224.167 325 225.417L314.583 243.542C313.958 244.792 314.167 246.042 315.208 246.875L326.25 255.417C326.042 257.083 325.833 258.75 325.833 260.417C325.833 262.083 326.042 263.958 326.25 265.417L315.208 273.958C314.167 274.792 313.958 276.25 314.583 277.292L325 295.417C325.625 296.667 327.083 297.083 328.125 296.667L341.042 291.458C343.75 293.542 346.667 295.208 349.792 296.458L351.667 310.208C351.875 311.667 352.917 312.5 354.167 312.5H375C376.25 312.5 377.5 311.667 377.5 310.208L379.375 296.458C382.5 295.208 385.417 293.333 388.125 291.458L401.042 296.667C402.292 297.083 403.542 296.667 404.167 295.417L414.583 277.292C415.208 276.042 415 274.792 413.958 273.958L403.125 265.417C403.333 263.75 403.542 262.083 403.542 260.417C403.542 258.75 403.333 256.875 403.125 255.417L414.167 246.875C415.208 246.042 415.417 244.583 415 243.333ZM364.583 277.708C355 277.708 347.292 269.792 347.292 260.417C347.292 250.833 355.208 243.125 364.583 243.125C373.958 243.125 381.875 251.042 381.875 260.417C381.875 270 374.167 277.708 364.583 277.708ZM98.7499 187.5H276.458C282.083 187.5 286.667 182.917 286.667 177.292V176.875C286.667 174.168 285.591 171.571 283.677 169.657C281.762 167.742 279.166 166.667 276.458 166.667H270.833C270.833 135.833 253.958 109.375 229.167 94.7917V114.583C229.167 120.417 224.583 125 218.75 125C212.917 125 208.333 120.417 208.333 114.583V86.25C201.667 84.5834 194.792 83.3334 187.5 83.3334C180.208 83.3334 173.333 84.5834 166.667 86.25V114.583C166.667 120.417 162.083 125 156.25 125C150.417 125 145.833 120.417 145.833 114.583V94.7917C121.042 109.375 104.167 135.833 104.167 166.667H98.7499C97.4093 166.667 96.0819 166.931 94.8434 167.444C93.6048 167.957 92.4795 168.709 91.5315 169.657C90.5836 170.605 89.8317 171.73 89.3187 172.968C88.8056 174.207 88.5416 175.534 88.5416 176.875V177.5C88.5416 182.917 93.1249 187.5 98.7499 187.5ZM187.5 270.833C226.25 270.833 258.542 244.167 267.917 208.333H107.083C116.458 244.167 148.75 270.833 187.5 270.833Z" fill="#1536AB"/>
</svg>
