<svg width="424" height="423" viewBox="0 0 424 423" fill="none" xmlns="http://www.w3.org/2000/svg">
<path d="M212.17 422.5C328.84 422.5 423.42 327.92 423.42 211.25C423.42 94.5798 328.84 0 212.17 0C95.4999 0 0.920044 94.5798 0.920044 211.25C0.920044 327.92 95.4999 422.5 212.17 422.5Z" fill="#DE0A40"/>
<path d="M305.75 110.21H121.12V330.77H305.75V110.21Z" stroke="white" stroke-width="4" stroke-miterlimit="10"/>
<path d="M291.09 110.21H135.79V315.99H291.09V110.21Z" stroke="white" stroke-width="4" stroke-miterlimit="10"/>
<path d="M154.1 192.73H272.78" stroke="white" stroke-width="4" stroke-miterlimit="10"/>
<path d="M154.1 232.29H181.87" stroke="white" stroke-width="4" stroke-miterlimit="10"/>
<path d="M192.81 232.29H272.78" stroke="white" stroke-width="4" stroke-miterlimit="10"/>
<path d="M154.1 211.25H199.55" stroke="white" stroke-width="4" stroke-miterlimit="10"/>
<path d="M212.17 211.25H272.78" stroke="white" stroke-width="4" stroke-miterlimit="10"/>
<path d="M154.1 252.4H272.78" stroke="white" stroke-width="4" stroke-miterlimit="10"/>
<path d="M154.1 291.97H181.87" stroke="white" stroke-width="4" stroke-miterlimit="10"/>
<path d="M192.81 291.97H272.78" stroke="white" stroke-width="4" stroke-miterlimit="10"/>
<path d="M154.1 270.92H199.55" stroke="white" stroke-width="4" stroke-miterlimit="10"/>
<path d="M212.17 270.92H272.78" stroke="white" stroke-width="4" stroke-miterlimit="10"/>
<path d="M235.28 100.14C235.28 99.8799 235.28 99.5899 235.28 99.3099C235.28 93.5043 232.974 87.9365 228.869 83.8314C224.763 79.7262 219.196 77.4199 213.39 77.4199C207.584 77.4199 202.017 79.7262 197.911 83.8314C193.806 87.9365 191.5 93.5043 191.5 99.3099C191.5 99.5899 191.5 99.8799 191.5 100.14H176.4V123.71H250.47V100.14H235.28Z" stroke="white" stroke-width="4" stroke-miterlimit="10"/>
<path d="M235.16 158.36C235.16 157.69 235.16 157.05 235.07 156.36L239.42 155.21L237.42 147.76L233 149C232.074 147.056 230.861 145.262 229.4 143.68L232.25 140L226.15 135.29L223.3 139C221.411 138.038 219.388 137.364 217.3 137V132.25H209.59V137C207.6 137.35 205.671 137.983 203.86 138.88L201.02 135.09L194.86 139.72L197.66 143.45C196.588 144.577 195.642 145.817 194.84 147.15L190.51 145.56L187.85 152.78L192.1 154.34C191.841 155.658 191.71 156.997 191.71 158.34C191.71 158.81 191.71 159.28 191.71 159.75L187.4 160.88L189.4 168.34L193.61 167.23C194.518 169.251 195.729 171.123 197.2 172.78L194.58 176.18L200.68 180.88L203.27 177.54C205.247 178.588 207.376 179.32 209.58 179.71V183.91H217.29V179.71C219.378 179.342 221.399 178.668 223.29 177.71L225.82 181.09L231.98 176.47L229.41 173.04C230.505 171.852 231.461 170.544 232.26 169.14L236.34 170.63L239 163.4L234.84 161.87C235.043 160.711 235.15 159.537 235.16 158.36V158.36ZM213.43 168.14C211.44 168.14 209.495 167.55 207.841 166.445C206.187 165.339 204.897 163.768 204.136 161.93C203.374 160.092 203.175 158.069 203.563 156.117C203.952 154.166 204.91 152.373 206.317 150.967C207.723 149.56 209.516 148.601 211.467 148.213C213.419 147.825 215.442 148.024 217.28 148.786C219.118 149.547 220.689 150.837 221.795 152.491C222.9 154.145 223.49 156.09 223.49 158.08C223.491 159.401 223.232 160.71 222.727 161.931C222.222 163.152 221.481 164.262 220.546 165.196C219.612 166.131 218.503 166.872 217.281 167.377C216.06 167.882 214.752 168.141 213.43 168.14V168.14Z" stroke="white" stroke-width="4" stroke-miterlimit="10"/>
</svg>
